{
    "asset": {
        "version": "1.0",
        "generator": "Open Asset Import Library (assimp v4.1.0)"
    },
    "accessors": {
        "mesh_accessor": {
            "bufferView": "mesh_view",
            "byteOffset": 0,
            "byteStride": 0,
            "componentType": 5126,
            "count": 24726,
            "type": "VEC3",
            "max": [
                9.5,
                101.19999694824219,
                26.5
            ],
            "min": [
                -9.5,
                -2.7755575615628915e-16,
                -17.0
            ]
        },
        "mesh_accessor_0": {
            "bufferView": "mesh_view_0",
            "byteOffset": 0,
            "byteStride": 0,
            "componentType": 5126,
            "count": 24726,
            "type": "VEC3",
            "max": [
                1.0,
                1.0,
                1.0
            ],
            "min": [
                -1.0,
                -1.0,
                -1.0
            ]
        },
        "mesh_accessor_1": {
            "bufferView": "mesh_view_1",
            "byteOffset": 0,
            "byteStride": 0,
            "componentType": 5123,
            "count": 36456,
            "type": "SCALAR",
            "max": [
                24725.0
            ],
            "min": [
                0.0
            ]
        }
    },
    "buffers": {
        "../../download/ig3hs9v68e3h/ig3hs9v68e3h": {
            "byteLength": 666336,
            "type": "arraybuffer",
            "uri": "../../download/ig3hs9v68e3h/ig3hs9v68e3h.bin"
        }
    },
    "bufferViews": {
        "mesh_view": {
            "buffer": "../../download/ig3hs9v68e3h/ig3hs9v68e3h",
            "byteOffset": 0,
            "byteLength": 296712,
            "target": 34962
        },
        "mesh_view_0": {
            "buffer": "../../download/ig3hs9v68e3h/ig3hs9v68e3h",
            "byteOffset": 296712,
            "byteLength": 296712,
            "target": 34962
        },
        "mesh_view_1": {
            "buffer": "../../download/ig3hs9v68e3h/ig3hs9v68e3h",
            "byteOffset": 593424,
            "byteLength": 72912,
            "target": 34963
        }
    },
    "materials": {
        "DefaultMaterial": {
            "values": {
                "ambient": [
                    1.0,
                    1.0,
                    1.0,
                    1.0
                ],
                "diffuse": [
                    0.09803922474384308,
                    0.09803922474384308,
                    0.09803922474384308,
                    1.0
                ],
                "specular": [
                    0.09803922474384308,
                    0.09803922474384308,
                    0.09803922474384308,
                    1.0
                ],
                "emission": [
                    0.0,
                    0.0,
                    0.0,
                    1.0
                ],
                "shininess": 0.0
            }
        }
    },
    "meshes": {
        "mesh": {
            "name": "",
            "primitives": [
                {
                    "mode": 4,
                    "material": "DefaultMaterial",
                    "indices": "mesh_accessor_1",
                    "attributes": {
                        "POSITION": "mesh_accessor",
                        "NORMAL": "mesh_accessor_0"
                    }
                }
            ]
        }
    },
    "nodes": {
        "<STL_BINARY>": {
            "meshes": [
                "mesh"
            ]
        }
    },
    "scenes": {
        "defaultScene": {
            "nodes": [
                "<STL_BINARY>"
            ]
        }
    },
    "scene": "defaultScene"
}