<svg xmlns="http://www.w3.org/2000/svg" version="1.1" xmlns:xlink="http://www.w3.org/1999/xlink" xmlns:svgjs="http://svgjs.dev/svgjs" width="1000" height="750" viewBox="0 0 1000 750"><rect width="1000" height="750" fill="#000000"></rect><g transform="matrix(0.834,0,0,0.834,82.49454545454546,115.4193570850203)"><svg viewBox="0 0 396 247" data-background-color="#c56e33" preserveAspectRatio="xMidYMid meet" height="623" width="1000" xmlns="http://www.w3.org/2000/svg" xmlns:xlink="http://www.w3.org/1999/xlink"><g id="tight-bounds" transform="matrix(1,0,0,1,0.2400000000000091,-0.09999999999999432)"><svg viewBox="0 0 395.52 247.2" height="247.2" width="395.52"><g><svg></svg></g><g><svg viewBox="0 0 395.52 247.2" height="247.2" width="395.52"><g transform="matrix(1,0,0,1,136.19774617563738,47.215199999999996)"><svg viewBox="0 0 123.12450764872521 152.7696" height="152.7696" width="123.12450764872521"><g><svg viewBox="0 0 123.12450764872521 152.7696" height="152.7696" width="123.12450764872521"><g><svg viewBox="0 0 123.12450764872521 152.7696" height="152.7696" width="123.12450764872521"><g><svg viewBox="0 0 123.12450764872521 152.7696" height="152.7696" width="123.12450764872521"><g id="textblocktransform"><svg viewBox="0 0 123.12450764872521 152.7696" height="152.7696" width="123.12450764872521" id="textblock"><g><svg viewBox="0 0 123.12450764872521 152.7696" height="152.7696" width="123.12450764872521"><g transform="matrix(1,0,0,1,0,0)"><svg width="123.12450764872521" viewBox="4.3 -35 28.45 35.300000000000004" height="152.7696" data-palette-color="#ffffff"><path d="M32.75-17.35L32.75-17.35Q32.75-12.85 31.35-9.53 29.95-6.2 27.4-4.03 24.85-1.85 21.3-0.78 17.75 0.3 13.5 0.3L13.5 0.3Q11.4 0.3 8.88 0.13 6.35-0.05 4.3-0.55L4.3-0.55 4.3-34.15Q6.35-34.65 8.88-34.83 11.4-35 13.5-35L13.5-35Q17.75-35 21.3-33.93 24.85-32.85 27.4-30.68 29.95-28.5 31.35-25.18 32.75-21.85 32.75-17.35ZM13.9-3.95L13.9-3.95Q20.8-3.95 24.2-7.48 27.6-11 27.6-17.35L27.6-17.35Q27.6-23.7 24.2-27.23 20.8-30.75 13.9-30.75L13.9-30.75Q11.85-30.75 10.73-30.7 9.6-30.65 9.15-30.6L9.15-30.6 9.15-4.1Q9.6-4.05 10.73-4 11.85-3.95 13.9-3.95Z" opacity="1" transform="matrix(1,0,0,1,0,0)" fill="#ffffff" class="wordmark-text-0" data-fill-palette-color="primary" id="text-0"></path></svg></g></svg></g></svg></g></svg></g></svg></g></svg></g></svg></g><path d="M318.499 41.215L318.499 0 71.299 0 71.299 247.2 318.499 247.2 318.499 205.985 304.722 205.985 304.722 233.423 85.076 233.423 85.076 13.777 304.722 13.777 304.722 41.215Z" fill="#ffffff" stroke="transparent" data-fill-palette-color="primary"></path></svg></g><defs></defs></svg><rect width="395.52" height="247.2" fill="none" stroke="none" visibility="hidden"></rect></g></svg></g></svg>